<svg width="24" height="24" viewBox="0 0 24 24" fill="none" xmlns="http://www.w3.org/2000/svg">
<g clip-path="url(#clip0_23:7)">
<rect width="24" height="24" fill="white"/>
<rect width="24" height="24" rx="2" fill="#5E5E5E"/>
<rect x="2" width="20" height="20" rx="2" fill="#C4C4C4"/>
<path d="M5.68 11.072C5.448 11.072 5.26 11 5.116 10.856C4.98 10.712 4.912 10.524 4.912 10.292V3.248C4.912 3.016 4.98 2.832 5.116 2.696C5.26 2.552 5.448 2.48 5.68 2.48C5.92 2.48 6.108 2.552 6.244 2.696C6.388 2.832 6.46 3.016 6.46 3.248V10.292C6.46 10.524 6.388 10.712 6.244 10.856C6.108 11 5.92 11.072 5.68 11.072ZM9.031 11C8.799 11 8.615 10.936 8.479 10.808C8.351 10.68 8.287 10.5 8.287 10.268V3.272C8.287 3.04 8.351 2.86 8.479 2.732C8.615 2.604 8.799 2.54 9.031 2.54H11.407C12.791 2.54 13.863 2.912 14.623 3.656C15.391 4.392 15.775 5.428 15.775 6.764C15.775 8.108 15.391 9.152 14.623 9.896C13.863 10.632 12.791 11 11.407 11H9.031ZM11.311 9.74C13.255 9.74 14.227 8.748 14.227 6.764C14.227 4.788 13.255 3.8 11.311 3.8H9.835V9.74H11.311Z" fill="black"/>
</g>
<defs>
<clipPath id="clip0_23:7">
<rect width="24" height="24" fill="white"/>
</clipPath>
</defs>
</svg>
